<?xml version="1.0" encoding="iso-8859-1"?>
<!-- Uploaded to: SVG Repo, www.svgrepo.com, Generator: SVG Repo Mixer Tools -->
<svg fill="#000000" height="800px" width="800px" version="1.1" id="Layer_1" xmlns="http://www.w3.org/2000/svg" xmlns:xlink="http://www.w3.org/1999/xlink" 
	 viewBox="0 0 512 512" xml:space="preserve">
<g transform="translate(-1)">
	<g>
		<g>
			<path d="M266.77,294.503c-1.544-2.586-1.596-5.794-0.171-8.431l44.083-81.271h-46.225l-53.589,111.59h29.099
				c2.748,0,5.325,1.323,6.929,3.55c1.604,2.236,2.039,5.094,1.169,7.697l-27.11,80.905l86.741-109.875h-33.596
				C271.097,298.668,268.315,297.089,266.77,294.503z"/>
			<path d="M489.598,188.826L293.545,14.916c-20.565-19.797-52.762-19.789-73.114-0.171l-65.792,59.836V51.2h8.533
				c4.719,0,8.533-3.814,8.533-8.533V8.533c0-4.71-3.814-8.533-8.533-8.533h-102.4c-4.719,0-8.533,3.823-8.533,8.533v34.133
				c0,4.719,3.814,8.533,8.533,8.533h8.533v98.509l-44.843,38.886c-5.973,5.299-8.004,13.534-5.171,20.992
				c2.842,7.458,9.822,12.279,17.792,12.279h32.222V460.8h-8.533c-4.719,0-8.533,3.823-8.533,8.533v34.133
				c0,4.719,3.814,8.533,8.533,8.533h392.465c4.71,0,8.525-3.806,8.533-8.516l0.068-34.133c0.009-2.261-0.896-4.437-2.492-6.042
				c-1.604-1.604-3.78-2.509-6.042-2.509h-8.533V221.867h32.273c7.927,0,14.857-4.779,17.673-12.186
				C497.525,202.274,495.52,194.091,489.598,188.826z M332.004,295.424l-128,162.133c-1.664,2.116-4.156,3.243-6.707,3.243
				c-1.374,0-2.765-0.333-4.053-1.024c-3.644-1.971-5.35-6.289-4.028-10.223l38.895-116.088h-30.805
				c-2.935,0-5.658-1.51-7.228-3.994c-1.553-2.483-1.732-5.598-0.469-8.243l61.798-128.657c1.417-2.953,4.403-4.838,7.689-4.838
				h65.92c3.004,0,5.786,1.587,7.33,4.173c1.545,2.586,1.604,5.786,0.171,8.431L288.442,281.6h36.864
				c3.268,0,6.246,1.877,7.671,4.813C334.411,289.357,334.027,292.855,332.004,295.424z"/>
		</g>
	</g>
</g>
</svg>